<svg width="230" height="36" viewBox="0 0 230 36" fill="none" xmlns="http://www.w3.org/2000/svg">
<path fill-rule="evenodd" clip-rule="evenodd" d="M9.6149 32.41C9.83475 32.4174 10.0578 32.4211 10.2842 32.4211C14.9337 32.4211 18.4208 31.379 20.7456 29.2947C23.0704 27.1719 24.2328 24.2386 24.2328 20.4947V17.0341L31.099 33H32.4584L44.161 3.3V31.2632H41.2058V32.4211H55.9819V31.2632H53.0267V1.15789H55.9819V0H44.161L35.5909 21.7105L26.8624 1.15789H27.188V0H26.3706H13.9542H13.1904V1.15789H13.9542H15.3671V21.0158C15.3671 27.7316 13.0227 31.0895 8.33371 31.0895C7.03341 31.0895 5.85133 30.8193 4.78745 30.2789C3.76297 29.7386 3.25074 29.1596 3.25074 28.5421C3.25074 27.9246 3.50686 27.5579 4.01909 27.4421C4.21611 27.3649 4.51163 27.2877 4.90566 27.2105C5.33909 27.0947 5.67401 26.9982 5.91043 26.921C7.95938 26.3035 8.98386 25.0491 8.98386 23.1579C8.98386 21.9614 8.58983 20.9772 7.80177 20.2053C7.05312 19.3947 6.02864 18.9895 4.72834 18.9895C3.42805 18.9895 2.30507 19.5298 1.3594 20.6105C0.453133 21.6526 0 22.8877 0 24.3158C0 26.9403 0.925968 28.9474 2.7779 30.3368C4.52064 31.6171 6.78193 32.3076 9.56176 32.4082L9.52032 32.4211L9.6149 32.41Z" fill="#008080"/>
<path d="M68.7418 16.0319C67.3066 16.0319 66.1529 15.6955 65.2808 15.0229C64.4269 14.3502 64 13.3786 64 12.108C64 11.4166 64.2089 10.8187 64.6268 10.3142C65.0628 9.79102 65.5806 9.52943 66.1802 9.52943C66.7797 9.52943 67.2521 9.72562 67.5973 10.118C67.9606 10.4917 68.1423 10.9682 68.1423 11.5474C68.1423 12.463 67.6699 13.0703 66.7252 13.3692C66.6162 13.4066 66.4618 13.4533 66.2619 13.5094C66.0802 13.5467 65.944 13.5841 65.8531 13.6215C65.617 13.6775 65.4989 13.855 65.4989 14.154C65.4989 14.453 65.735 14.7332 66.2074 14.9948C66.6979 15.2564 67.243 15.3872 67.8425 15.3872C70.0045 15.3872 71.0855 13.7616 71.0855 10.5104V0.896887H69.7229V0.336333H76.5359V0.896887H75.1733V10.2581C75.1733 12.0706 74.6374 13.4907 73.5655 14.5184C72.4935 15.5274 70.8857 16.0319 68.7418 16.0319Z" fill="white"/>
<path d="M89.3716 8.15607C89.3716 5.76437 89.0537 3.9052 88.4178 2.57855C87.8001 1.23322 86.9371 0.560554 85.8289 0.560554C84.7388 0.560554 83.8758 1.23322 83.2399 2.57855C82.604 3.92388 82.2861 5.80174 82.2861 8.21212C82.2861 10.6225 82.5859 12.4817 83.1854 13.7896C83.8031 15.0976 84.6843 15.7516 85.8289 15.7516C88.1907 15.7516 89.3716 13.2197 89.3716 8.15607ZM93.7592 8.32424C93.7592 10.8841 93.0234 12.8554 91.5518 14.2381C90.0802 15.6208 88.1634 16.3121 85.8016 16.3121C83.4398 16.3121 81.5321 15.6301 80.0787 14.2661C78.6252 12.8834 77.8985 10.9121 77.8985 8.35226C77.8985 5.77371 78.6252 3.73703 80.0787 2.24222C81.5321 0.747406 83.4579 0 85.8561 0C88.2725 0 90.1892 0.747406 91.6063 2.24222C93.0416 3.71835 93.7592 5.74568 93.7592 8.32424Z" fill="white"/>
<path d="M97.0313 15.4713H99.2115V16.0319H94.8512V15.4713H96.4863V2.13011C95.9049 1.30796 95.3599 0.896887 94.8512 0.896887V0.336333H99.9473L107.605 9.66957V0.896887H105.425V0.336333H110.058V0.896887H108.15V16.3121H107.605L97.0313 2.8308V15.4713Z" fill="white"/>
<path d="M140.189 0.836521H138.837V15.3362H140.189V15.8939H133.429V15.3362H134.781V1.86823L129.427 16.1727H128.806L122.803 1.47785V15.3362H124.966V15.8939H120.64V15.3362H122.262V0.836521H120.613V0.278841H126.642L130.861 10.7353L134.781 0.278841H140.189V0.836521Z" fill="white"/>
<path d="M158.121 15.3362V15.8939H151.009V15.3362H152.605L150.793 11.4603H145.331L143.763 15.3362H145.899V15.8939H141.275V15.3362H143.087L149.279 0H149.955L156.823 15.3362H158.121ZM145.575 10.8748H150.523L147.873 5.18642L145.575 10.8748Z" fill="white"/>
<path d="M164.599 0.836521V8.03059C166.401 8.03059 167.609 7.76105 168.222 7.22196C168.835 6.68287 169.141 5.78128 169.141 4.51721C169.141 3.25313 168.826 2.32367 168.195 1.72881C167.564 1.13395 166.365 0.836521 164.599 0.836521ZM175.225 16.1727H174.035C171.782 16.1727 170.214 15.6708 169.331 14.667C168.628 13.8862 168.15 12.8545 167.897 11.5719C167.789 11.0328 167.672 10.5402 167.546 10.094C167.258 9.09018 166.672 8.58827 165.788 8.58827H164.599V15.3362H165.951V15.8939H159.191V15.3362H160.543V0.836521H159.191V0.278841H166.302C170.899 0.278841 173.197 1.66375 173.197 4.43356C173.197 5.53033 172.81 6.42261 172.034 7.11042C171.259 7.79822 170.268 8.14213 169.06 8.14213V8.33731C170.863 8.33731 172.116 9.56421 172.819 12.018C173.179 13.3193 173.54 14.2487 173.9 14.8064C174.279 15.3455 174.72 15.615 175.225 15.615V16.1727Z" fill="white"/>
<path d="M189.794 5.01912C189.794 3.36467 189.524 2.2586 188.983 1.70093C188.46 1.12466 187.469 0.836521 186.009 0.836521H185.197V15.3362H187.09V15.8939H179.249V15.3362H181.142V0.836521H180.33C178.888 0.836521 177.897 1.12466 177.356 1.70093C176.833 2.2586 176.572 3.36467 176.572 5.01912H176.031V0.278841H190.335V5.01912H189.794Z" fill="white"/>
<path d="M198.726 15.8939H191.966V15.3362H193.318V0.836521H191.966V0.278841H198.726V0.836521H197.374V15.3362H198.726V15.8939Z" fill="white"/>
<path d="M202.514 15.3362H204.677V15.8939H200.35V15.3362H201.973V2.06342C201.396 1.24549 200.855 0.836521 200.35 0.836521V0.278841H205.407L213.005 9.56421V0.836521H210.842V0.278841H215.438V0.836521H213.546V16.1727H213.005L202.514 2.76052V15.3362Z" fill="white"/>
<path d="M218.133 15.8939H217.592V9.39691H218.133C218.133 11.1443 218.737 12.6315 219.944 13.8583C221.17 15.0852 222.657 15.6987 224.406 15.6987C225.127 15.6987 225.704 15.4849 226.136 15.0574C226.587 14.6112 226.812 14.0257 226.812 13.3007C226.812 12.4827 226.299 11.7856 225.271 11.2094C224.712 10.9119 223.748 10.4472 222.378 9.81517C221.008 9.16454 220.044 8.61616 219.485 8.17001C218.367 7.27772 217.871 6.0973 217.998 4.62874C218.142 3.16019 218.683 2.02624 219.62 1.2269C220.557 0.408966 221.612 0 222.784 0C223.973 0 225.037 0.167304 225.974 0.501912C226.93 0.817931 227.47 0.975941 227.597 0.975941C227.957 0.975941 228.137 0.650627 228.137 0H228.678V5.10277H228.137C228.137 3.76434 227.66 2.67686 226.704 1.84034C225.749 0.985236 224.523 0.557681 223.027 0.557681C222.36 0.557681 221.837 0.762164 221.459 1.17113C221.08 1.5615 220.891 1.99835 220.891 2.48168C220.891 2.965 220.954 3.33679 221.08 3.59704C221.206 3.85729 221.423 4.09895 221.729 4.32202C222.054 4.5265 222.333 4.69381 222.567 4.82393C222.802 4.95406 223.171 5.13066 223.676 5.35373C224.199 5.5768 224.559 5.73481 224.757 5.82776C225.749 6.29249 226.335 6.57133 226.515 6.66428C226.695 6.73863 226.957 6.86876 227.299 7.05465C227.642 7.24055 227.894 7.40785 228.056 7.55656C228.236 7.70528 228.462 7.89117 228.732 8.11424C229.003 8.33732 229.201 8.56968 229.327 8.81134C229.453 9.03442 229.579 9.29467 229.706 9.5921C229.958 10.187 230.048 10.8841 229.976 11.6834C229.832 13.1891 229.282 14.3417 228.327 15.141C227.389 15.9218 226.118 16.3121 224.514 16.3121C223.072 16.3121 221.639 15.9311 220.215 15.1689C219.728 14.9086 219.368 14.7785 219.133 14.7785C218.466 14.7785 218.133 15.1503 218.133 15.8939Z" fill="white"/>
<path d="M65.08 24.624C65.456 24.584 65.824 24.556 66.184 24.54C66.544 24.516 66.956 24.504 67.42 24.504C68.14 24.504 68.76 24.616 69.28 24.84C69.8 25.064 70.232 25.372 70.576 25.764C70.92 26.156 71.172 26.612 71.332 27.132C71.5 27.652 71.584 28.204 71.584 28.788C71.584 29.372 71.5 29.928 71.332 30.456C71.164 30.976 70.904 31.432 70.552 31.824C70.208 32.216 69.764 32.528 69.22 32.76C68.684 32.984 68.04 33.096 67.288 33.096C66.832 33.096 66.432 33.084 66.088 33.06C65.752 33.044 65.416 33.016 65.08 32.976V24.624ZM67.384 25.488C67.152 25.488 66.94 25.496 66.748 25.512C66.556 25.52 66.38 25.532 66.22 25.548V32.04C66.388 32.064 66.564 32.08 66.748 32.088C66.932 32.096 67.124 32.1 67.324 32.1C67.86 32.1 68.324 32.02 68.716 31.86C69.108 31.692 69.428 31.464 69.676 31.176C69.932 30.88 70.12 30.532 70.24 30.132C70.36 29.724 70.42 29.276 70.42 28.788C70.42 28.356 70.36 27.944 70.24 27.552C70.12 27.152 69.936 26.8 69.688 26.496C69.44 26.184 69.124 25.94 68.74 25.764C68.356 25.58 67.904 25.488 67.384 25.488ZM73.8237 30.324C73.8957 30.908 74.0997 31.364 74.4357 31.692C74.7717 32.02 75.2157 32.184 75.7677 32.184C76.1277 32.184 76.4517 32.148 76.7397 32.076C77.0277 31.996 77.3037 31.896 77.5677 31.776L77.8197 32.7C77.5317 32.836 77.2077 32.944 76.8477 33.024C76.4877 33.104 76.0837 33.144 75.6357 33.144C75.1877 33.144 74.7837 33.072 74.4237 32.928C74.0637 32.776 73.7557 32.564 73.4997 32.292C73.2517 32.012 73.0597 31.672 72.9237 31.272C72.7877 30.864 72.7197 30.4 72.7197 29.88C72.7197 29.416 72.7877 28.984 72.9237 28.584C73.0597 28.184 73.2517 27.84 73.4997 27.552C73.7477 27.256 74.0437 27.028 74.3877 26.868C74.7317 26.7 75.1157 26.616 75.5397 26.616C75.9877 26.616 76.3797 26.692 76.7157 26.844C77.0517 26.996 77.3317 27.204 77.5557 27.468C77.7797 27.732 77.9477 28.04 78.0597 28.392C78.1717 28.744 78.2277 29.116 78.2277 29.508C78.2277 29.788 78.2157 30.06 78.1917 30.324H73.8237ZM75.5157 27.552C75.0437 27.552 74.6557 27.712 74.3517 28.032C74.0557 28.352 73.8757 28.824 73.8117 29.448H77.2317C77.2317 28.84 77.0797 28.372 76.7757 28.044C76.4717 27.716 76.0517 27.552 75.5157 27.552ZM78.827 27.048L79.811 26.64L81.935 31.776L84.059 26.64L84.983 27.048L82.463 33H81.335L78.827 27.048ZM86.5151 30.324C86.5871 30.908 86.7911 31.364 87.1271 31.692C87.4631 32.02 87.9071 32.184 88.4591 32.184C88.8191 32.184 89.1431 32.148 89.4311 32.076C89.7191 31.996 89.9951 31.896 90.2591 31.776L90.5111 32.7C90.2231 32.836 89.8991 32.944 89.5391 33.024C89.1791 33.104 88.7751 33.144 88.3271 33.144C87.8791 33.144 87.4751 33.072 87.1151 32.928C86.7551 32.776 86.4471 32.564 86.1911 32.292C85.9431 32.012 85.7511 31.672 85.6151 31.272C85.4791 30.864 85.4111 30.4 85.4111 29.88C85.4111 29.416 85.4791 28.984 85.6151 28.584C85.7511 28.184 85.9431 27.84 86.1911 27.552C86.4391 27.256 86.7351 27.028 87.0791 26.868C87.4231 26.7 87.8071 26.616 88.2311 26.616C88.6791 26.616 89.0711 26.692 89.4071 26.844C89.7431 26.996 90.0231 27.204 90.2471 27.468C90.4711 27.732 90.6391 28.04 90.7511 28.392C90.8631 28.744 90.9191 29.116 90.9191 29.508C90.9191 29.788 90.9071 30.06 90.8831 30.324H86.5151ZM88.2071 27.552C87.7351 27.552 87.3471 27.712 87.0431 28.032C86.7471 28.352 86.5671 28.824 86.5031 29.448H89.9231C89.9231 28.84 89.7711 28.372 89.4671 28.044C89.1631 27.716 88.7431 27.552 88.2071 27.552ZM93.3784 30.936C93.3784 31.368 93.4664 31.688 93.6424 31.896C93.8264 32.104 94.0784 32.208 94.3984 32.208C94.5504 32.208 94.6984 32.192 94.8424 32.16C94.9864 32.12 95.1144 32.076 95.2264 32.028L95.4904 32.904C95.3464 32.968 95.1664 33.024 94.9504 33.072C94.7424 33.12 94.5104 33.144 94.2544 33.144C93.9744 33.144 93.7144 33.104 93.4744 33.024C93.2424 32.944 93.0384 32.82 92.8624 32.652C92.6864 32.484 92.5464 32.268 92.4424 32.004C92.3464 31.74 92.2984 31.42 92.2984 31.044V24.12H93.3784V30.936ZM100.963 29.88C100.963 29.568 100.911 29.272 100.807 28.992C100.711 28.712 100.571 28.468 100.387 28.26C100.211 28.052 99.9991 27.888 99.7511 27.768C99.5111 27.64 99.2471 27.576 98.9591 27.576C98.3271 27.576 97.8351 27.784 97.4831 28.2C97.1311 28.616 96.9551 29.168 96.9551 29.856C96.9551 30.168 97.0031 30.468 97.0991 30.756C97.2031 31.036 97.3431 31.284 97.5191 31.5C97.7031 31.708 97.9151 31.876 98.1551 32.004C98.4031 32.124 98.6711 32.184 98.9591 32.184C99.2711 32.184 99.5511 32.128 99.7991 32.016C100.047 31.904 100.255 31.748 100.423 31.548C100.599 31.34 100.731 31.096 100.819 30.816C100.915 30.536 100.963 30.224 100.963 29.88ZM95.8511 29.88C95.8511 29.376 95.9311 28.924 96.0911 28.524C96.2511 28.116 96.4671 27.772 96.7391 27.492C97.0191 27.212 97.3471 26.996 97.7231 26.844C98.1071 26.692 98.5191 26.616 98.9591 26.616C99.3911 26.616 99.7951 26.692 100.171 26.844C100.555 26.996 100.887 27.212 101.167 27.492C101.447 27.772 101.667 28.112 101.827 28.512C101.987 28.912 102.067 29.36 102.067 29.856C102.067 30.352 101.987 30.804 101.827 31.212C101.675 31.612 101.459 31.956 101.179 32.244C100.899 32.532 100.567 32.756 100.183 32.916C99.8071 33.068 99.3991 33.144 98.9591 33.144C98.5111 33.144 98.0951 33.064 97.7111 32.904C97.3351 32.744 97.0071 32.52 96.7271 32.232C96.4551 31.944 96.2391 31.6 96.0791 31.2C95.9271 30.8 95.8511 30.36 95.8511 29.88ZM103.017 26.76C103.753 26.76 104.213 27.052 104.397 27.636C104.453 27.548 104.537 27.444 104.649 27.324C104.769 27.204 104.913 27.092 105.081 26.988C105.249 26.884 105.441 26.796 105.657 26.724C105.873 26.652 106.113 26.616 106.377 26.616C106.737 26.616 107.081 26.688 107.409 26.832C107.745 26.976 108.037 27.184 108.285 27.456C108.541 27.728 108.745 28.064 108.897 28.464C109.049 28.864 109.125 29.316 109.125 29.82C109.125 30.316 109.049 30.768 108.897 31.176C108.753 31.584 108.553 31.936 108.297 32.232C108.049 32.52 107.761 32.744 107.433 32.904C107.105 33.064 106.761 33.144 106.401 33.144C106.025 33.144 105.677 33.072 105.357 32.928C105.045 32.776 104.785 32.604 104.577 32.412V35.64H103.497V28.356C103.497 28.084 103.429 27.892 103.293 27.78C103.165 27.66 102.997 27.6 102.789 27.6L103.017 26.76ZM108.021 29.856C108.021 29.496 107.969 29.176 107.865 28.896C107.769 28.608 107.633 28.364 107.457 28.164C107.289 27.964 107.089 27.812 106.857 27.708C106.633 27.604 106.393 27.552 106.137 27.552C105.793 27.552 105.481 27.64 105.201 27.816C104.929 27.984 104.721 28.168 104.577 28.368V31.44C104.785 31.656 105.021 31.836 105.285 31.98C105.557 32.116 105.857 32.184 106.185 32.184C106.457 32.184 106.705 32.128 106.929 32.016C107.153 31.904 107.345 31.748 107.505 31.548C107.673 31.34 107.801 31.096 107.889 30.816C107.977 30.528 108.021 30.208 108.021 29.856ZM111.312 30.324C111.384 30.908 111.588 31.364 111.924 31.692C112.26 32.02 112.704 32.184 113.256 32.184C113.616 32.184 113.94 32.148 114.228 32.076C114.516 31.996 114.792 31.896 115.056 31.776L115.308 32.7C115.02 32.836 114.696 32.944 114.336 33.024C113.976 33.104 113.572 33.144 113.124 33.144C112.676 33.144 112.272 33.072 111.912 32.928C111.552 32.776 111.244 32.564 110.988 32.292C110.74 32.012 110.548 31.672 110.412 31.272C110.276 30.864 110.208 30.4 110.208 29.88C110.208 29.416 110.276 28.984 110.412 28.584C110.548 28.184 110.74 27.84 110.988 27.552C111.236 27.256 111.532 27.028 111.876 26.868C112.22 26.7 112.604 26.616 113.028 26.616C113.476 26.616 113.868 26.692 114.204 26.844C114.54 26.996 114.82 27.204 115.044 27.468C115.268 27.732 115.436 28.04 115.548 28.392C115.66 28.744 115.716 29.116 115.716 29.508C115.716 29.788 115.704 30.06 115.68 30.324H111.312ZM113.004 27.552C112.532 27.552 112.144 27.712 111.84 28.032C111.544 28.352 111.364 28.824 111.3 29.448H114.72C114.72 28.84 114.568 28.372 114.264 28.044C113.96 27.716 113.54 27.552 113.004 27.552ZM120.539 27.804C120.387 27.74 120.207 27.708 119.999 27.708C119.775 27.708 119.555 27.756 119.339 27.852C119.131 27.948 118.943 28.092 118.775 28.284C118.615 28.476 118.483 28.724 118.379 29.028C118.283 29.324 118.235 29.676 118.235 30.084V33H117.155V26.76H118.199V28.116C118.271 27.924 118.367 27.736 118.487 27.552C118.607 27.368 118.747 27.208 118.907 27.072C119.075 26.936 119.267 26.828 119.483 26.748C119.699 26.66 119.939 26.616 120.203 26.616C120.323 26.616 120.439 26.624 120.551 26.64C120.671 26.648 120.775 26.664 120.863 26.688L120.539 27.804ZM125.15 33.552L128.534 23.724L129.422 24.024L126.038 33.852L125.15 33.552ZM134.666 24.624C135.042 24.584 135.41 24.556 135.77 24.54C136.13 24.516 136.542 24.504 137.006 24.504C137.726 24.504 138.346 24.616 138.866 24.84C139.386 25.064 139.818 25.372 140.162 25.764C140.506 26.156 140.758 26.612 140.918 27.132C141.086 27.652 141.17 28.204 141.17 28.788C141.17 29.372 141.086 29.928 140.918 30.456C140.75 30.976 140.49 31.432 140.138 31.824C139.794 32.216 139.35 32.528 138.806 32.76C138.27 32.984 137.626 33.096 136.874 33.096C136.418 33.096 136.018 33.084 135.674 33.06C135.338 33.044 135.002 33.016 134.666 32.976V24.624ZM136.97 25.488C136.738 25.488 136.526 25.496 136.334 25.512C136.142 25.52 135.966 25.532 135.806 25.548V32.04C135.974 32.064 136.15 32.08 136.334 32.088C136.518 32.096 136.71 32.1 136.91 32.1C137.446 32.1 137.91 32.02 138.302 31.86C138.694 31.692 139.014 31.464 139.262 31.176C139.518 30.88 139.706 30.532 139.826 30.132C139.946 29.724 140.006 29.276 140.006 28.788C140.006 28.356 139.946 27.944 139.826 27.552C139.706 27.152 139.522 26.8 139.274 26.496C139.026 26.184 138.71 25.94 138.326 25.764C137.942 25.58 137.49 25.488 136.97 25.488ZM143.41 30.324C143.482 30.908 143.686 31.364 144.022 31.692C144.358 32.02 144.802 32.184 145.354 32.184C145.714 32.184 146.038 32.148 146.326 32.076C146.614 31.996 146.89 31.896 147.154 31.776L147.406 32.7C147.118 32.836 146.794 32.944 146.434 33.024C146.074 33.104 145.67 33.144 145.222 33.144C144.774 33.144 144.37 33.072 144.01 32.928C143.65 32.776 143.342 32.564 143.086 32.292C142.838 32.012 142.646 31.672 142.51 31.272C142.374 30.864 142.306 30.4 142.306 29.88C142.306 29.416 142.374 28.984 142.51 28.584C142.646 28.184 142.838 27.84 143.086 27.552C143.334 27.256 143.63 27.028 143.974 26.868C144.318 26.7 144.702 26.616 145.126 26.616C145.574 26.616 145.966 26.692 146.302 26.844C146.638 26.996 146.918 27.204 147.142 27.468C147.366 27.732 147.534 28.04 147.646 28.392C147.758 28.744 147.814 29.116 147.814 29.508C147.814 29.788 147.802 30.06 147.778 30.324H143.41ZM145.102 27.552C144.63 27.552 144.242 27.712 143.938 28.032C143.642 28.352 143.462 28.824 143.398 29.448H146.818C146.818 28.84 146.666 28.372 146.362 28.044C146.058 27.716 145.638 27.552 145.102 27.552ZM149.169 31.596C149.377 31.78 149.637 31.928 149.949 32.04C150.269 32.152 150.609 32.208 150.969 32.208C151.417 32.208 151.753 32.136 151.977 31.992C152.209 31.84 152.325 31.648 152.325 31.416C152.325 31.296 152.301 31.184 152.253 31.08C152.213 30.976 152.133 30.876 152.013 30.78C151.901 30.684 151.745 30.592 151.545 30.504C151.345 30.408 151.085 30.304 150.765 30.192C150.173 29.992 149.733 29.756 149.445 29.484C149.157 29.204 149.013 28.82 149.013 28.332C149.013 28.092 149.065 27.868 149.169 27.66C149.281 27.452 149.437 27.272 149.637 27.12C149.845 26.96 150.093 26.836 150.381 26.748C150.677 26.66 151.013 26.616 151.389 26.616C151.797 26.616 152.153 26.66 152.457 26.748C152.769 26.828 153.049 26.932 153.297 27.06L152.997 27.948C152.781 27.82 152.533 27.716 152.253 27.636C151.981 27.556 151.677 27.516 151.341 27.516C150.925 27.516 150.609 27.6 150.393 27.768C150.177 27.936 150.069 28.12 150.069 28.32C150.069 28.416 150.085 28.504 150.117 28.584C150.157 28.664 150.225 28.74 150.321 28.812C150.417 28.884 150.545 28.956 150.705 29.028C150.865 29.1 151.065 29.176 151.305 29.256C151.697 29.392 152.029 29.532 152.301 29.676C152.573 29.812 152.793 29.964 152.961 30.132C153.129 30.3 153.249 30.484 153.321 30.684C153.393 30.876 153.429 31.092 153.429 31.332C153.429 31.612 153.369 31.864 153.249 32.088C153.129 32.312 152.961 32.504 152.745 32.664C152.529 32.816 152.265 32.932 151.953 33.012C151.649 33.1 151.309 33.144 150.933 33.144C150.453 33.144 150.025 33.084 149.649 32.964C149.273 32.844 148.961 32.688 148.713 32.496L149.169 31.596ZM155.946 33H154.866V26.76H155.946V33ZM155.406 25.692C155.198 25.692 155.018 25.62 154.866 25.476C154.722 25.324 154.65 25.144 154.65 24.936C154.65 24.704 154.718 24.52 154.854 24.384C154.99 24.248 155.174 24.18 155.406 24.18C155.614 24.18 155.79 24.256 155.934 24.408C156.086 24.552 156.162 24.728 156.162 24.936C156.162 25.168 156.094 25.352 155.958 25.488C155.822 25.624 155.638 25.692 155.406 25.692ZM160.338 26.616C160.698 26.616 161.018 26.676 161.298 26.796C161.586 26.916 161.834 27.064 162.042 27.24V26.76H163.026V32.856C163.026 33.376 162.958 33.82 162.822 34.188C162.686 34.556 162.49 34.856 162.234 35.088C161.986 35.328 161.686 35.504 161.334 35.616C160.982 35.728 160.59 35.784 160.158 35.784C159.782 35.784 159.422 35.74 159.078 35.652C158.734 35.564 158.426 35.432 158.154 35.256L158.55 34.32C158.742 34.472 158.966 34.596 159.222 34.692C159.478 34.796 159.79 34.848 160.158 34.848C160.726 34.848 161.17 34.7 161.49 34.404C161.818 34.108 161.982 33.628 161.982 32.964V32.196C161.822 32.388 161.59 32.572 161.286 32.748C160.99 32.916 160.634 33 160.218 33C159.866 33 159.522 32.932 159.186 32.796C158.85 32.652 158.554 32.448 158.298 32.184C158.042 31.912 157.834 31.584 157.674 31.2C157.522 30.808 157.446 30.36 157.446 29.856C157.446 29.392 157.522 28.964 157.674 28.572C157.826 28.172 158.03 27.828 158.286 27.54C158.55 27.252 158.858 27.028 159.21 26.868C159.562 26.7 159.938 26.616 160.338 26.616ZM160.458 32.04C160.778 32.04 161.066 31.968 161.322 31.824C161.578 31.68 161.786 31.512 161.946 31.32V28.056C161.762 27.928 161.55 27.812 161.31 27.708C161.07 27.604 160.782 27.552 160.446 27.552C160.198 27.552 159.958 27.604 159.726 27.708C159.502 27.804 159.302 27.948 159.126 28.14C158.95 28.332 158.81 28.568 158.706 28.848C158.602 29.12 158.55 29.436 158.55 29.796C158.55 30.14 158.602 30.452 158.706 30.732C158.81 31.004 158.95 31.24 159.126 31.44C159.302 31.632 159.502 31.78 159.726 31.884C159.958 31.988 160.202 32.04 160.458 32.04ZM165.93 27.804C166.154 27.468 166.438 27.188 166.782 26.964C167.134 26.732 167.55 26.616 168.03 26.616C168.734 26.616 169.258 26.828 169.602 27.252C169.954 27.676 170.13 28.236 170.13 28.932V33H169.05V29.052C169.05 28.596 168.946 28.236 168.738 27.972C168.53 27.7 168.234 27.564 167.85 27.564C167.666 27.564 167.486 27.6 167.31 27.672C167.134 27.736 166.962 27.828 166.794 27.948C166.634 28.068 166.482 28.208 166.338 28.368C166.202 28.528 166.078 28.696 165.966 28.872V33H164.886V26.76H165.93V27.804ZM172.671 30.324C172.743 30.908 172.947 31.364 173.283 31.692C173.619 32.02 174.063 32.184 174.615 32.184C174.975 32.184 175.299 32.148 175.587 32.076C175.875 31.996 176.151 31.896 176.415 31.776L176.667 32.7C176.379 32.836 176.055 32.944 175.695 33.024C175.335 33.104 174.931 33.144 174.483 33.144C174.035 33.144 173.631 33.072 173.271 32.928C172.911 32.776 172.603 32.564 172.347 32.292C172.099 32.012 171.907 31.672 171.771 31.272C171.635 30.864 171.567 30.4 171.567 29.88C171.567 29.416 171.635 28.984 171.771 28.584C171.907 28.184 172.099 27.84 172.347 27.552C172.595 27.256 172.891 27.028 173.235 26.868C173.579 26.7 173.963 26.616 174.387 26.616C174.835 26.616 175.227 26.692 175.563 26.844C175.899 26.996 176.179 27.204 176.403 27.468C176.627 27.732 176.795 28.04 176.907 28.392C177.019 28.744 177.075 29.116 177.075 29.508C177.075 29.788 177.063 30.06 177.039 30.324H172.671ZM174.363 27.552C173.891 27.552 173.503 27.712 173.199 28.032C172.903 28.352 172.723 28.824 172.659 29.448H176.079C176.079 28.84 175.927 28.372 175.623 28.044C175.319 27.716 174.899 27.552 174.363 27.552ZM181.899 27.804C181.747 27.74 181.567 27.708 181.359 27.708C181.135 27.708 180.915 27.756 180.699 27.852C180.491 27.948 180.303 28.092 180.135 28.284C179.975 28.476 179.843 28.724 179.739 29.028C179.643 29.324 179.595 29.676 179.595 30.084V33H178.515V26.76H179.559V28.116C179.631 27.924 179.727 27.736 179.847 27.552C179.967 27.368 180.107 27.208 180.267 27.072C180.435 26.936 180.627 26.828 180.843 26.748C181.059 26.66 181.299 26.616 181.563 26.616C181.683 26.616 181.799 26.624 181.911 26.64C182.031 26.648 182.135 26.664 182.223 26.688L181.899 27.804ZM186.509 33.552L189.893 23.724L190.781 24.024L187.397 33.852L186.509 33.552ZM195.065 32.7L198.353 24.6H199.601L202.841 32.7L201.797 33.12L200.861 30.72H196.973L196.037 33.096L195.065 32.7ZM197.333 29.76H200.489L198.917 25.728L197.333 29.76ZM207.305 27.804C207.153 27.74 206.973 27.708 206.765 27.708C206.541 27.708 206.321 27.756 206.105 27.852C205.897 27.948 205.709 28.092 205.541 28.284C205.381 28.476 205.249 28.724 205.145 29.028C205.049 29.324 205.001 29.676 205.001 30.084V33H203.921V26.76H204.965V28.116C205.037 27.924 205.133 27.736 205.253 27.552C205.373 27.368 205.513 27.208 205.673 27.072C205.841 26.936 206.033 26.828 206.249 26.748C206.465 26.66 206.705 26.616 206.969 26.616C207.089 26.616 207.205 26.624 207.317 26.64C207.437 26.648 207.541 26.664 207.629 26.688L207.305 27.804ZM209.44 25.02H210.268V26.988H211.996V27.924H210.268V30.936C210.268 31.168 210.292 31.364 210.34 31.524C210.396 31.684 210.468 31.812 210.556 31.908C210.644 32.004 210.748 32.076 210.868 32.124C210.996 32.164 211.128 32.184 211.264 32.184C211.464 32.184 211.652 32.152 211.828 32.088C212.004 32.024 212.172 31.948 212.332 31.86L212.632 32.724C212.472 32.82 212.256 32.912 211.984 33C211.712 33.096 211.428 33.144 211.132 33.144C210.532 33.144 210.056 32.948 209.704 32.556C209.36 32.164 209.188 31.596 209.188 30.852V27.924H208.108V26.988H209.212L209.44 25.02ZM214.798 33H213.718V26.76H214.798V33ZM214.258 25.692C214.05 25.692 213.87 25.62 213.718 25.476C213.574 25.324 213.502 25.144 213.502 24.936C213.502 24.704 213.57 24.52 213.706 24.384C213.842 24.248 214.026 24.18 214.258 24.18C214.466 24.18 214.642 24.256 214.786 24.408C214.938 24.552 215.014 24.728 215.014 24.936C215.014 25.168 214.946 25.352 214.81 25.488C214.674 25.624 214.49 25.692 214.258 25.692ZM216.634 31.596C216.842 31.78 217.102 31.928 217.414 32.04C217.734 32.152 218.074 32.208 218.434 32.208C218.882 32.208 219.218 32.136 219.442 31.992C219.674 31.84 219.79 31.648 219.79 31.416C219.79 31.296 219.766 31.184 219.718 31.08C219.678 30.976 219.598 30.876 219.478 30.78C219.366 30.684 219.21 30.592 219.01 30.504C218.81 30.408 218.55 30.304 218.23 30.192C217.638 29.992 217.198 29.756 216.91 29.484C216.622 29.204 216.478 28.82 216.478 28.332C216.478 28.092 216.53 27.868 216.634 27.66C216.746 27.452 216.902 27.272 217.102 27.12C217.31 26.96 217.558 26.836 217.846 26.748C218.142 26.66 218.478 26.616 218.854 26.616C219.262 26.616 219.618 26.66 219.922 26.748C220.234 26.828 220.514 26.932 220.762 27.06L220.462 27.948C220.246 27.82 219.998 27.716 219.718 27.636C219.446 27.556 219.142 27.516 218.806 27.516C218.39 27.516 218.074 27.6 217.858 27.768C217.642 27.936 217.534 28.12 217.534 28.32C217.534 28.416 217.55 28.504 217.582 28.584C217.622 28.664 217.69 28.74 217.786 28.812C217.882 28.884 218.01 28.956 218.17 29.028C218.33 29.1 218.53 29.176 218.77 29.256C219.162 29.392 219.494 29.532 219.766 29.676C220.038 29.812 220.258 29.964 220.426 30.132C220.594 30.3 220.714 30.484 220.786 30.684C220.858 30.876 220.894 31.092 220.894 31.332C220.894 31.612 220.834 31.864 220.714 32.088C220.594 32.312 220.426 32.504 220.21 32.664C219.994 32.816 219.73 32.932 219.418 33.012C219.114 33.1 218.774 33.144 218.398 33.144C217.918 33.144 217.49 33.084 217.114 32.964C216.738 32.844 216.426 32.688 216.178 32.496L216.634 31.596ZM222.823 25.02H223.651V26.988H225.379V27.924H223.651V30.936C223.651 31.168 223.675 31.364 223.723 31.524C223.779 31.684 223.851 31.812 223.939 31.908C224.027 32.004 224.131 32.076 224.251 32.124C224.379 32.164 224.511 32.184 224.647 32.184C224.847 32.184 225.035 32.152 225.211 32.088C225.387 32.024 225.555 31.948 225.715 31.86L226.015 32.724C225.855 32.82 225.639 32.912 225.367 33C225.095 33.096 224.811 33.144 224.515 33.144C223.915 33.144 223.439 32.948 223.087 32.556C222.743 32.164 222.571 31.596 222.571 30.852V27.924H221.491V26.988H222.595L222.823 25.02Z" fill="white"/>
</svg>
