<svg width="407" height="241" viewBox="0 0 407 241" fill="none" xmlns="http://www.w3.org/2000/svg">
<path fill-rule="evenodd" clip-rule="evenodd" d="M19.8442 221.544C33.3552 231.691 51.2291 236.764 73.4659 236.764C73.9851 236.764 74.5024 236.763 75.0176 236.759L75 236.764H169.194V228.309H135.417V223.231C140.117 220.535 144.377 217.436 148.198 213.934C164.806 198.431 173.109 177.01 173.109 149.669V107.779L229.149 240.992H238.86L322.459 24.0992V228.309H301.348V236.764H406.903V228.309H385.792V8.45587H406.903V0H322.459L261.238 158.548L195.372 0H194.22H101.217H99.6832V8.45587H101.217H109.777V153.474C109.777 202.518 93.0286 227.04 59.5327 227.04C50.2439 227.04 41.7995 225.067 34.1996 221.121C26.8812 217.175 23.222 212.947 23.222 208.437C23.222 203.927 25.0516 201.25 28.7108 200.404C30.1182 199.84 32.2293 199.277 35.0441 198.713C38.1403 197.867 40.5329 197.163 42.2217 196.599C56.8586 192.089 64.1771 182.929 64.1771 169.117C64.1771 160.38 61.3623 153.192 55.7327 147.555C50.3846 141.636 43.0662 138.676 33.7774 138.676C24.4886 138.676 16.4665 142.622 9.711 150.515C3.237 158.125 0 167.144 0 177.573C0 196.74 6.61474 211.397 19.8442 221.544Z" fill="black"/>
</svg>
