<svg width="380" height="38" viewBox="0 0 380 38" fill="none" xmlns="http://www.w3.org/2000/svg">
<path d="M11.1168 37.3601C7.83973 37.3601 5.20564 36.5921 3.21452 35.0563C1.26489 33.5205 0.29007 31.302 0.29007 28.401C0.29007 26.8225 0.767108 25.4573 1.72119 24.3054C2.71675 23.1108 3.89897 22.5136 5.26787 22.5136C6.63676 22.5136 7.71528 22.9615 8.50343 23.8574C9.33307 24.7107 9.74788 25.7986 9.74788 27.1211C9.74788 29.2116 8.66936 30.5981 6.51231 31.2807C6.26342 31.366 5.91083 31.4727 5.45453 31.6006C5.03972 31.686 4.7286 31.7713 4.5212 31.8566C3.98193 31.9846 3.7123 32.3899 3.7123 33.0725C3.7123 33.7551 4.25157 34.395 5.33009 34.9923C6.45009 35.5896 7.69454 35.8882 9.06343 35.8882C13.9997 35.8882 16.4679 32.1766 16.4679 24.7533V2.80353H13.3568V1.52366H28.9124V2.80353H25.8013V24.1774C25.8013 28.3156 24.5776 31.558 22.1301 33.9044C19.6827 36.2082 16.0116 37.3601 11.1168 37.3601Z" fill="black"/>
<path d="M58.2192 19.3779C58.2192 13.9171 57.4932 9.67218 56.0414 6.64315C54.631 3.57145 52.6606 2.03561 50.1302 2.03561C47.6413 2.03561 45.671 3.57145 44.2191 6.64315C42.7673 9.71484 42.0413 14.0024 42.0413 19.5059C42.0413 25.0093 42.7258 29.2542 44.0947 32.2406C45.505 35.227 47.5169 36.7201 50.1302 36.7201C55.5229 36.7201 58.2192 30.9394 58.2192 19.3779ZM68.237 19.7618C68.237 25.6066 66.557 30.1075 63.197 33.2645C59.837 36.4215 55.4606 38 50.068 38C44.6754 38 40.3198 36.4428 37.0013 33.3285C33.6828 30.1715 32.0235 25.6706 32.0235 19.8258C32.0235 13.9384 33.6828 9.28822 37.0013 5.87523C40.3198 2.46223 44.7169 0.755737 50.1925 0.755737C55.7095 0.755737 60.0858 2.46223 63.3214 5.87523C66.5985 9.24555 68.237 13.8744 68.237 19.7618Z" fill="black"/>
<path d="M75.708 36.0802H80.6858V37.3601H70.7303V36.0802H74.4636V5.61925C73.1362 3.74211 71.8917 2.80353 70.7303 2.80353V1.52366H82.3658L99.8504 22.8335V2.80353H94.8726V1.52366H105.45V2.80353H101.095V38H99.8504L75.708 7.21909V36.0802Z" fill="black"/>
<path d="M174.247 2.6657H171.16V35.7717H174.247V37.045H158.813V35.7717H161.899V5.02132L149.676 37.6817H148.256L134.55 4.13001V35.7717H139.489V37.045H129.611V35.7717H133.316V2.6657H129.55V1.39239H143.317L152.948 25.2669L161.899 1.39239H174.247V2.6657Z" fill="black"/>
<path d="M215.189 35.7717V37.045H198.952V35.7717H202.595L198.458 26.9222H185.988L182.407 35.7717H187.284V37.045H176.727V35.7717H180.864L195.001 0.755737H196.545L212.226 35.7717H215.189ZM186.543 25.5853H197.841L191.791 12.5975L186.543 25.5853Z" fill="black"/>
<path d="M229.98 2.6657V19.0914C234.095 19.0914 236.853 18.4759 238.252 17.2451C239.652 16.0142 240.351 13.9557 240.351 11.0695C240.351 8.18337 239.631 6.06119 238.19 4.703C236.75 3.3448 234.013 2.6657 229.98 2.6657ZM254.242 37.6817H251.525C246.381 37.6817 242.8 36.5357 240.783 34.2438C239.178 32.4611 238.088 30.1055 237.511 27.1769C237.264 25.946 236.997 24.8213 236.709 23.8026C236.05 21.5107 234.713 20.3647 232.696 20.3647H229.98V35.7717H233.066V37.045H217.632V35.7717H220.719V2.6657H217.632V1.39239H233.869C244.364 1.39239 249.612 4.55444 249.612 10.8785C249.612 13.3827 248.727 15.42 246.957 16.9904C245.187 18.5608 242.924 19.346 240.166 19.346V19.7917C244.282 19.7917 247.142 22.593 248.747 28.1955C249.57 31.1666 250.394 33.2888 251.217 34.5621C252.081 35.7929 253.089 36.4084 254.242 36.4084V37.6817Z" fill="black"/>
<path d="M287.506 12.2155C287.506 8.43803 286.889 5.91264 285.654 4.63933C284.46 3.32358 282.197 2.6657 278.863 2.6657H277.011V35.7717H281.332V37.045H263.429V35.7717H267.751V2.6657H265.898C262.606 2.6657 260.342 3.32358 259.107 4.63933C257.914 5.91264 257.317 8.43803 257.317 12.2155H256.082V1.39239H288.741V12.2155H287.506Z" fill="black"/>
<path d="M307.9 37.045H292.466V35.7717H295.553V2.6657H292.466V1.39239H307.9V2.6657H304.813V35.7717H307.9V37.045Z" fill="black"/>
<path d="M316.548 35.7717H321.487V37.045H311.609V35.7717H315.313V5.46698C313.996 3.59946 312.761 2.6657 311.609 2.6657V1.39239H323.153L340.501 22.593V2.6657H335.562V1.39239H346.058V2.6657H341.736V37.6817H340.501L316.548 7.05862V35.7717Z" fill="black"/>
<path d="M352.21 37.045H350.975V22.211H352.21C352.21 26.2007 353.589 29.5962 356.346 32.3975C359.145 35.1987 362.541 36.5994 366.533 36.5994C368.179 36.5994 369.496 36.1113 370.484 35.1351C371.513 34.1164 372.027 32.7794 372.027 31.1241C372.027 29.2566 370.854 27.665 368.508 26.3492C367.232 25.6701 365.031 24.6091 361.903 23.166C358.775 21.6804 356.573 20.4284 355.297 19.4097C352.745 17.3724 351.613 14.6772 351.901 11.3242C352.231 7.97115 353.465 5.38209 355.605 3.55702C357.746 1.6895 360.153 0.755737 362.829 0.755737C365.545 0.755737 367.973 1.13773 370.114 1.90172C372.295 2.62326 373.53 2.98403 373.818 2.98403C374.641 2.98403 375.052 2.24126 375.052 0.755737H376.287V12.4065H375.052C375.052 9.35057 373.962 6.86762 371.78 4.95766C369.599 3.00525 366.8 2.02905 363.384 2.02905C361.861 2.02905 360.668 2.49593 359.804 3.42969C358.939 4.321 358.507 5.31843 358.507 6.42196C358.507 7.5255 358.651 8.37437 358.939 8.96858C359.227 9.56279 359.721 10.1146 360.421 10.6239C361.162 11.0908 361.8 11.4728 362.335 11.7699C362.87 12.067 363.714 12.4702 364.866 12.9795C366.059 13.4888 366.883 13.8496 367.335 14.0618C369.599 15.1229 370.937 15.7596 371.348 15.9718C371.76 16.1415 372.357 16.4387 373.139 16.8631C373.921 17.2875 374.497 17.6695 374.867 18.0091C375.279 18.3486 375.793 18.7731 376.411 19.2824C377.028 19.7917 377.481 20.3222 377.769 20.874C378.057 21.3833 378.345 21.9775 378.633 22.6566C379.209 24.0148 379.415 25.6065 379.25 27.4316C378.921 30.8695 377.666 33.501 375.485 35.3261C373.344 37.1087 370.443 38 366.78 38C363.487 38 360.215 37.1299 356.964 35.3897C355.852 34.7955 355.029 34.4984 354.494 34.4984C352.971 34.4984 352.21 35.3473 352.21 37.045Z" fill="black"/>
</svg>
